<?xml version="1.0" standalone="no"?>
<!DOCTYPE svg PUBLIC "-//W3C//DTD SVG 20010904//EN"
 "http://www.w3.org/TR/2001/REC-SVG-20010904/DTD/svg10.dtd">
<svg version="1.0" xmlns="http://www.w3.org/2000/svg"
 width="260.000000pt" height="260.000000pt" viewBox="0 0 260.000000 260.000000"
 preserveAspectRatio="xMidYMid meet">
<metadata>
Created by potrace 1.11, written by Peter Selinger 2001-2013
</metadata>
<g transform="translate(0.000000,260.000000) scale(0.100000,-0.100000)"
fill="#000000" stroke="none">
<path d="M1180 2328 c-103 -13 -270 -69 -365 -123 -230 -130 -400 -346 -481
-610 -27 -85 -28 -101 -28 -280 0 -179 2 -195 27 -279 122 -395 422 -662 821
-731 214 -37 452 3 644 106 l72 40 237 -86 c130 -46 239 -83 241 -80 3 3 -33
110 -80 239 l-86 234 49 99 c27 54 61 143 76 198 24 89 27 118 28 255 0 157
-6 200 -47 330 -96 304 -366 563 -680 654 -145 42 -280 53 -428 34z m317 -157
c95 -20 239 -82 321 -138 62 -43 157 -138 208 -210 53 -73 116 -205 139 -288
26 -96 31 -284 11 -385 -20 -96 -74 -234 -115 -293 l-28 -40 62 -169 c34 -92
57 -168 51 -167 -6 0 -83 26 -171 58 l-160 59 -27 -19 c-48 -35 -172 -88 -253
-110 -107 -29 -318 -32 -415 -5 -159 43 -255 92 -370 189 -135 113 -235 271
-281 447 -32 120 -32 310 -1 428 67 249 219 441 444 561 175 94 385 123 585
82z"/>
<path d="M1235 1878 c-87 -16 -209 -82 -279 -151 -108 -106 -156 -227 -156
-391 0 -82 5 -114 26 -171 14 -38 25 -74 25 -80 1 -5 -25 -79 -56 -163 -31
-85 -55 -155 -53 -158 3 -2 71 21 153 51 l149 55 70 -29 c179 -74 357 -63 517
31 95 57 190 177 228 291 135 396 -211 793 -624 715z m251 -140 c145 -53 247
-175 275 -330 29 -159 -43 -324 -182 -417 -115 -77 -264 -95 -382 -45 -34 14
-71 28 -82 30 -11 3 -69 -13 -128 -35 -101 -36 -107 -38 -101 -18 4 12 23 66
44 121 l37 101 -20 44 c-25 57 -34 185 -17 248 67 251 320 388 556 301z"/>
</g>
</svg>
